# xmcd
#
# Track frame offsets:
#	150
#	12777
#	24012
#	33682
#	46630
#	58090
#	70085
#	80987
#	92130
#	102695
#	114735
#	125422
#	134262
#	145565
#	155800
#	168415
#	180097
#	191902
#	202867
#	213982
#	225665
#	236372
#	249145
#	261635
#	272872
#	285672
#	298415
#	310342
#
# Disc length: 4284 seconds
#
# Revision: 0
# Processed by: cddbd v1.4PL0 Copyright (c) Steve Scherf et al.
# Submitted via: EasyCDDAExtractor 4.6.0.1
#
DISCID=9a10ba1c
DTITLE=Jim and Jesse - Bluegrass and More Vol. 2
DYEAR=1900
DGENRE=Country
TTITLE0=What About You
TTITLE1=When My Blue Moon Turns To Gold Again
TTITLE2=Nine Pound Hammer
TTITLE3=The Little Paper Boy
TTITLE4=I Wonder Where You Are Tonight
TTITLE5=Just When I Needed You
TTITLE6=Las Cassas, Tennessee
TTITLE7=Drifting And Dreaming Of You
TTITLE8=The Grass Is Greener (In The Mountains)
TTITLE9=The Violet And The Rose
TTITLE10=Take My Ring From Your Finger
TTITLE11=Why Not Confess
TTITLE12=Better Times A-Coming
TTITLE13=Wild Georgia Boys
TTITLE14=Cotton Mill Man
TTITLE15=(It's A Long, Long Way) To The Top Of The World
TTITLE16=The Old Time Religion
TTITLE17=The Old Camp Meeting Days
TTITLE18=The Old Country Church
TTITLE19=Are You Washed In The Blood
TTITLE20=It's A Lonesome Road
TTITLE21=Swing Low, Sweet Chariot
TTITLE22=Kneel At The Cross
TTITLE23=Rock Of Ages
TTITLE24=Where The Roses Never Fade
TTITLE25=Lord, I'm Coming Home
TTITLE26=This World Is Not My Home
TTITLE27=Where The Soul Never Dies
EXTD=
EXTT0=
EXTT1=
EXTT2=
EXTT3=
EXTT4=
EXTT5=
EXTT6=
EXTT7=
EXTT8=
EXTT9=
EXTT10=
EXTT11=
EXTT12=
EXTT13=
EXTT14=
EXTT15=
EXTT16=
EXTT17=
EXTT18=
EXTT19=
EXTT20=
EXTT21=
EXTT22=
EXTT23=
EXTT24=
EXTT25=
EXTT26=
EXTT27=
PLAYORDER=
